# xmcd
#
# Track frame offsets:
# 150
# 21181
# 31154
#
# Disc length: 553 seconds
#
#
# Revision: 0
# Processed by: cddbd v1.5.1PL2 Copyright (c) Steve Scherf et al.
# Submitted via: FreeRIP 2.944 
#
DISCID=18022703
DTITLE=Jane Siberry - Tootie
DYEAR=2005
DGENRE=Celtic
TTITLE0=Anytime
TTITLE1=You can't judge a book
TTITLE2=If i ever see Mark Benson
EXTD=
EXTT0=
EXTT1=
EXTT2=
PLAYORDER=
